<svg width="131" height="108" viewBox="0 0 131 108" fill="none" xmlns="http://www.w3.org/2000/svg">
<path d="M127.961 15.7484C129.363 15.7484 130.5 14.6114 130.5 13.2094V3.01172C130.5 1.60939 129.363 0.472656 127.961 0.472656H3.03906C1.63674 0.472656 0.5 1.60939 0.5 3.01172V13.2094C0.5 14.6114 1.63674 15.7484 3.03906 15.7484H10.6976V56.8805C6.3048 58.0116 3.04947 62.0063 3.04947 66.7473C3.04947 71.4882 6.3048 75.4829 10.6976 76.6141V87.153H10.6562C5.05609 87.153 0.5 91.709 0.5 97.3092V104.989C0.5 106.391 1.63674 107.528 3.03906 107.528H127.961C129.363 107.528 130.5 106.391 130.5 104.989V97.3092C130.5 91.709 125.944 87.153 120.344 87.153H120.302V15.7484H127.961ZM5.57812 5.55078H125.422V10.6703C119.598 10.6703 16.1536 10.6703 5.57812 10.6703V5.55078ZM99.9172 61.6382C102.735 61.6382 105.027 63.9299 105.027 66.7473C105.027 69.5646 102.735 71.8564 99.9172 71.8564C97.0999 71.8564 94.8081 69.5646 94.8081 66.7473C94.8081 63.9299 97.0999 61.6382 99.9172 61.6382ZM97.3782 56.8805C95.369 57.3977 93.5998 58.5159 92.2691 60.0289C90.9384 58.5159 89.1689 57.3977 87.1597 56.8805V15.7484H97.3782V56.8805ZM38.7309 61.6382C41.5483 61.6382 43.8403 63.9299 43.8403 66.7473C43.8403 69.5646 41.5483 71.8564 38.7309 71.8564C35.9136 71.8564 33.6218 69.5646 33.6218 66.7473C33.6218 63.9299 35.9138 61.6382 38.7309 61.6382ZM41.27 56.8805V15.7484H51.4884V56.8805C49.4793 57.3977 47.7101 58.5159 46.3793 60.0289C45.0486 58.5159 43.2794 57.3977 41.27 56.8805ZM54.0275 61.6382C56.8448 61.6382 59.1366 63.9299 59.1366 66.7473C59.1366 69.5646 56.8448 71.8564 54.0275 71.8564C51.2102 71.8564 48.9184 69.5646 48.9184 66.7473C48.9184 63.9299 51.2104 61.6382 54.0275 61.6382ZM56.5666 56.8805V15.7484H66.785V56.8805C64.7756 57.3977 63.0064 58.5159 61.6757 60.0289C60.3452 58.5159 58.576 57.3977 56.5666 56.8805ZM69.3241 61.6382C72.1414 61.6382 74.4332 63.9299 74.4332 66.7473C74.4332 69.5646 72.1414 71.8564 69.3241 71.8564C66.5067 71.8564 64.2147 69.5646 64.2147 66.7473C64.2147 63.9299 66.507 61.6382 69.3241 61.6382ZM71.8631 56.8805V15.7484H82.0813V56.8805C80.0722 57.3977 78.303 58.5159 76.9722 60.0289C75.6418 58.5159 73.8726 57.3977 71.8631 56.8805ZM84.6207 61.6382C87.438 61.6382 89.73 63.9299 89.73 66.7473C89.73 69.5646 87.438 71.8564 84.6207 71.8564C81.8033 71.8564 79.5116 69.5646 79.5116 66.7473C79.5116 63.9299 81.8033 61.6382 84.6207 61.6382ZM23.822 15.7484L15.7758 42.0935V15.7484H23.822ZM8.1276 66.7473C8.1276 63.9327 10.415 61.643 13.2286 61.6384C16.2115 61.6694 18.3461 64.0523 18.3461 66.7473C18.3461 69.5646 16.054 71.8564 13.2367 71.8564C10.4194 71.8564 8.1276 69.5646 8.1276 66.7473ZM125.422 97.3092V102.45H5.57812V97.3092C5.57812 94.5091 7.85617 92.2311 10.6562 92.2311H120.344C123.144 92.2311 125.422 94.5091 125.422 97.3092ZM115.224 87.153H15.7758V76.6141C20.1686 75.4829 23.4242 71.488 23.4242 66.7473C23.4242 62.2722 20.522 58.4643 16.5019 57.0998L29.1315 15.7482H36.1919V56.8802C31.799 58.0114 28.5437 62.0061 28.5437 66.747C28.5437 72.3642 33.1137 76.9342 38.7309 76.9342C41.7758 76.9342 44.5108 75.5898 46.3793 73.4654C50.4441 78.087 57.605 78.0938 61.6757 73.4654C65.7488 78.0964 72.9097 78.0847 76.9722 73.4654C81.0452 78.0964 88.2063 78.0844 92.2688 73.4654C94.1371 75.5898 96.8724 76.9342 99.917 76.9342C105.534 76.9342 110.104 72.3642 110.104 66.747C110.104 62.0061 106.849 58.0111 102.456 56.8802V15.7484H115.224V87.153H115.224Z" fill="url(#paint0_linear_17_9409)"/>
<defs>
<linearGradient id="paint0_linear_17_9409" x1="65.5" y1="0.472656" x2="65.5" y2="107.528" gradientUnits="userSpaceOnUse">
<stop stop-color="#C95D82"/>
<stop offset="1" stop-color="#632E40"/>
</linearGradient>
</defs>
</svg>
