<svg width="33" height="33" viewBox="0 0 33 33" fill="none" xmlns="http://www.w3.org/2000/svg">
<path fill-rule="evenodd" clip-rule="evenodd" d="M11.969 3.0293H20.2058C23.8235 3.0293 26.7471 4.45771 26.7871 8.0888V28.3535C26.7871 28.5804 26.7337 28.8074 26.6269 29.0076C26.4534 29.328 26.1597 29.5683 25.7992 29.6751C25.4521 29.7819 25.065 29.7285 24.7446 29.5416L16.0941 25.2163L7.43018 29.5416C7.23127 29.6471 7.00299 29.7152 6.77604 29.7152C6.02847 29.7152 5.42773 29.1011 5.42773 28.3535V8.0888C5.42773 4.45771 8.36465 3.0293 11.969 3.0293ZM11.0612 13.2018H21.1134C21.6875 13.2018 22.1547 12.7332 22.1547 12.1471C22.1547 11.5597 21.6875 11.0925 21.1134 11.0925H11.0612C10.4872 11.0925 10.0199 11.5597 10.0199 12.1471C10.0199 12.7332 10.4872 13.2018 11.0612 13.2018Z" fill="url(#paint0_linear_109_733)"/>
<defs>
<linearGradient id="paint0_linear_109_733" x1="16.1074" y1="3.0293" x2="16.1074" y2="29.7295" gradientUnits="userSpaceOnUse">
<stop stop-color="#C95D82"/>
<stop offset="1" stop-color="#632E40"/>
</linearGradient>
</defs>
</svg>
