<svg width="18" height="20" viewBox="0 0 18 20" fill="none" xmlns="http://www.w3.org/2000/svg">
<path fill-rule="evenodd" clip-rule="evenodd" d="M13.4674 1.57164L13.4683 2.27202C16.042 2.47373 17.7421 4.22748 17.7448 6.91693L17.755 14.7892C17.7587 17.7214 15.9165 19.5256 12.9637 19.5303L5.75094 19.5396C2.81658 19.5434 0.95135 17.6962 0.94766 14.7556L0.937513 6.97576C0.933823 4.26856 2.57397 2.51949 5.14765 2.28323L5.14672 1.58285C5.1458 1.17196 5.45022 0.862858 5.8561 0.862858C6.26199 0.861925 6.5664 1.17009 6.56732 1.58098L6.56824 2.23467L12.0477 2.2272L12.0468 1.57351C12.0458 1.16262 12.3503 0.854454 12.7561 0.85352C13.1528 0.852586 13.4664 1.16075 13.4674 1.57164ZM2.35906 7.26431L16.3252 7.24564V6.91879C16.2855 4.91104 15.2782 3.85767 13.4702 3.70079L13.4711 4.41984C13.4711 4.82139 13.1584 5.13983 12.7617 5.13983C12.3558 5.14077 12.0505 4.82326 12.0505 4.42171L12.0496 3.6653L6.57012 3.67277L6.57104 4.42825C6.57104 4.83073 6.26755 5.14824 5.86166 5.14824C5.45578 5.14917 5.15044 4.8326 5.15044 4.43011L5.14952 3.71106C3.35071 3.89129 2.35537 4.94839 2.35814 6.97389L2.35906 7.26431ZM12.3734 11.5085V11.5188C12.3826 11.9484 12.7332 12.2743 13.1584 12.2649C13.5735 12.2547 13.9047 11.8989 13.8955 11.4693C13.8761 11.0584 13.5431 10.7232 13.1289 10.7241C12.7046 10.7334 12.3725 11.079 12.3734 11.5085ZM13.1352 15.7015C12.7109 15.6922 12.3686 15.3382 12.3677 14.9087C12.3585 14.4791 12.6989 14.1233 13.1232 14.113H13.1325C13.566 14.113 13.9175 14.467 13.9175 14.9059C13.9184 15.3448 13.5679 15.7006 13.1352 15.7015ZM8.57258 11.5236C8.59103 11.9531 8.94249 12.2884 9.36683 12.2697C9.78193 12.2501 10.1131 11.8952 10.0947 11.4657C10.0845 11.0454 9.74319 10.7186 9.32808 10.7195C8.90375 10.7382 8.57166 11.094 8.57258 11.5236ZM9.37041 15.6596C8.94607 15.6783 8.59554 15.3431 8.57616 14.9135C8.57616 14.4839 8.90733 14.1291 9.33166 14.1095C9.74677 14.1085 10.089 14.4354 10.0982 14.8547C10.1176 15.2852 9.78552 15.64 9.37041 15.6596ZM4.77208 11.5562C4.79053 11.9857 5.14199 12.3219 5.56632 12.3023C5.98143 12.2836 6.3126 11.9278 6.29322 11.4983C6.284 11.078 5.94269 10.7512 5.52665 10.7521C5.10232 10.7708 4.77116 11.1266 4.77208 11.5562ZM5.57026 15.6642C5.14592 15.6838 4.79538 15.3476 4.77601 14.918C4.77509 14.4885 5.10718 14.1327 5.53151 14.114C5.94662 14.1131 6.28886 14.4399 6.29808 14.8601C6.31745 15.2897 5.98629 15.6455 5.57026 15.6642Z" fill="url(#paint0_linear_17_6116)"/>
<defs>
<linearGradient id="paint0_linear_17_6116" x1="9.34625" y1="0.853516" x2="9.34625" y2="19.5396" gradientUnits="userSpaceOnUse">
<stop stop-color="#C95D82"/>
<stop offset="1" stop-color="#632E40"/>
</linearGradient>
</defs>
</svg>
