<svg width="100" height="101" viewBox="0 0 100 101" fill="none" xmlns="http://www.w3.org/2000/svg">
<path d="M75.0002 63.2578H66.6668V71.5911H75.0002M75.0002 46.5911H66.6668V54.9245H75.0002M83.3335 79.9245H50.0002V71.5911H58.3335V63.2578H50.0002V54.9245H58.3335V46.5911H50.0002V38.2578H83.3335M41.6668 29.9245H33.3335V21.5911H41.6668M41.6668 46.5911H33.3335V38.2578H41.6668M41.6668 63.2578H33.3335V54.9245H41.6668M41.6668 79.9245H33.3335V71.5911H41.6668M25.0002 29.9245H16.6668V21.5911H25.0002M25.0002 46.5911H16.6668V38.2578H25.0002M25.0002 63.2578H16.6668V54.9245H25.0002M25.0002 79.9245H16.6668V71.5911H25.0002M50.0002 29.9245V13.2578H8.3335V88.2578H91.6668V29.9245H50.0002Z" fill="#C4C4C4"/>
</svg>
