<svg width="23" height="22" viewBox="0 0 23 22" fill="none" xmlns="http://www.w3.org/2000/svg">
<path fill-rule="evenodd" clip-rule="evenodd" d="M8.10123 11.039C8.10123 12.9376 9.65543 14.4823 11.5743 14.4823C13.4845 14.4823 15.0387 12.9376 15.0387 11.039C15.0387 9.13172 13.4845 7.58694 11.5743 7.58694C9.65543 7.58694 8.10123 9.13172 8.10123 11.039ZM16.68 5.73989C18.1994 6.91357 19.4931 8.63095 20.4222 10.7798C20.4916 10.9438 20.4916 11.1337 20.4222 11.289C18.5641 15.5868 15.256 18.1585 11.5745 18.1585H11.5659C7.89309 18.1585 4.58499 15.5868 2.7269 11.289C2.65744 11.1337 2.65744 10.9438 2.7269 10.7798C4.58499 6.48207 7.89309 3.91895 11.5659 3.91895H11.5745C13.4153 3.91895 15.1605 4.55757 16.68 5.73989ZM11.5756 13.1859C12.7651 13.1859 13.7376 12.2194 13.7376 11.037C13.7376 9.84609 12.7651 8.87953 11.5756 8.87953C11.4714 8.87953 11.3672 8.88816 11.2717 8.90542C11.237 9.85472 10.4555 10.6142 9.49173 10.6142H9.44832C9.42227 10.7522 9.40491 10.8903 9.40491 11.037C9.40491 12.2194 10.3774 13.1859 11.5756 13.1859Z" fill="url(#paint0_linear_109_713)"/>
<defs>
<linearGradient id="paint0_linear_109_713" x1="11.5745" y1="3.91895" x2="11.5745" y2="18.1585" gradientUnits="userSpaceOnUse">
<stop stop-color="#C95D82"/>
<stop offset="1" stop-color="#632E40"/>
</linearGradient>
</defs>
</svg>
