<svg width="134" height="138" viewBox="0 0 134 138" fill="none" xmlns="http://www.w3.org/2000/svg">
<path d="M133.936 69.8534C133.936 64.2348 133.48 60.1347 132.493 55.8828H68.3345V81.2423H105.994C105.235 87.5445 101.135 97.0355 92.0237 103.413L91.896 104.262L112.182 119.977L113.587 120.117C126.495 108.197 133.936 90.6574 133.936 69.8534Z" fill="#4285F4"/>
<path d="M68.3345 136.67C86.7846 136.67 102.274 130.595 113.587 120.118L92.0237 103.413C86.2533 107.437 78.5085 110.247 68.3345 110.247C50.2638 110.247 34.9266 98.3263 29.4593 81.8501L28.6579 81.9181L7.56443 98.2426L7.28857 99.0094C18.5257 121.332 41.6078 136.67 68.3345 136.67Z" fill="#34A853"/>
<path d="M29.4596 81.8497C28.017 77.5978 27.1821 73.0418 27.1821 68.3345C27.1821 63.6267 28.017 59.0713 29.3837 54.8194L29.3455 53.9138L7.98766 37.3271L7.28887 37.6595C2.65749 46.9228 0 57.3251 0 68.3345C0 79.344 2.65749 89.7457 7.28887 99.009L29.4596 81.8497Z" fill="#FBBC05"/>
<path d="M68.3345 26.4226C81.166 26.4226 89.8216 31.9653 94.7571 36.5972L114.043 17.767C102.198 6.75758 86.7846 0 68.3345 0C41.6078 0 18.5257 15.3372 7.28857 37.6598L29.3834 54.8196C34.9266 38.3434 50.2638 26.4226 68.3345 26.4226Z" fill="#EB4335"/>
</svg>
