<svg width="131" height="130" viewBox="0 0 131 130" fill="none" xmlns="http://www.w3.org/2000/svg">
<path d="M38.771 76.4784C33.7429 71.1027 25.0969 73.1684 22.7079 79.7967C21.7504 78.7442 19.2934 76.0366 19.2243 75.9672C18.6784 75.4213 18.3775 74.6952 18.3775 73.9228V43.3299C18.3775 38.4011 14.3676 34.3911 9.43877 34.3911C4.50994 34.3911 0.5 38.4011 0.5 43.3299V86.6699C0.5 89.3994 1.56311 91.9654 3.49279 93.8956C3.56719 93.97 2.50256 92.9909 19.5084 108.565C20.4568 109.532 20.9786 110.808 20.9786 112.164V127.461C20.9786 128.863 22.1155 130 23.5176 130H54.0275C55.4296 130 56.5666 128.863 56.5666 127.461V96.5052C56.5666 95.8611 56.3218 95.241 55.8818 94.7708L38.771 76.4784ZM51.4884 124.922H26.0567V112.164C26.0567 109.435 24.9941 106.869 23.0639 104.939C22.9791 104.854 23.5755 105.405 7.04824 90.2693C6.0999 89.3024 5.57812 88.0265 5.57812 86.6702V43.3299C5.57812 41.2011 7.31002 39.4692 9.43877 39.4692C11.5675 39.4692 13.2992 41.2011 13.2992 43.3299V73.9228C13.2992 76.0114 14.0987 77.9761 15.5503 79.4711C17.8926 82.0486 29.716 95.0592 32.0717 97.6516C33.0165 98.6908 34.6222 98.7647 35.6584 97.823C36.6961 96.88 36.773 95.2743 35.8298 94.2363L28.11 85.7411C26.6643 83.7995 26.9946 81.0207 28.9449 79.4836C30.8098 78.0132 33.4398 78.2123 35.0625 79.947L51.4884 97.5074V124.922Z" fill="url(#paint0_linear_17_9399)"/>
<path d="M121.561 34.3911C116.632 34.3911 112.623 38.4011 112.623 43.3299V73.9228C112.623 74.6952 112.322 75.4211 111.776 75.9672C111.71 76.0328 108.943 79.0817 108.292 79.7967C105.904 73.1689 97.2576 71.1029 92.2293 76.4784L75.1183 94.7708C74.6782 95.241 74.4335 95.8611 74.4335 96.5052V127.461C74.4335 128.863 75.5705 130 76.9725 130H107.482C108.884 130 110.021 128.863 110.021 127.461V112.164C110.021 110.808 110.543 109.532 111.492 108.565C128.31 93.163 127.432 93.9707 127.507 93.8958C129.437 91.9656 130.5 89.3996 130.5 86.6702V43.3299C130.5 38.4011 126.49 34.3911 121.561 34.3911ZM125.422 86.6702C125.422 88.0265 124.9 89.3024 123.952 90.2693C107.352 105.471 108.017 104.858 107.936 104.939C106.006 106.869 104.943 109.435 104.943 112.164V124.922H79.5116V97.5076L95.9376 79.9472C97.56 78.2133 100.189 78.0137 102.055 79.4838C104.003 81.0187 104.338 83.7967 102.89 85.7414L95.17 94.2366C94.2267 95.2745 94.3037 96.8802 95.3414 97.8232C96.3788 98.766 97.9848 98.6901 98.9281 97.6519C101.317 95.0227 113.122 82.0328 115.449 79.4714C116.901 77.9764 117.701 76.0114 117.701 73.923V43.3299C117.701 41.2011 119.433 39.4692 121.561 39.4692C123.69 39.4692 125.422 41.2014 125.422 43.3299V86.6702Z" fill="url(#paint1_linear_17_9399)"/>
<path d="M86.6603 23.3599H80.7966C79.3945 23.3599 78.2575 24.4969 78.2575 25.8989V28.4484C78.2575 34.6137 73.8611 39.7706 68.0391 40.9513V28.438H70.7688C72.1709 28.438 73.3079 27.301 73.3079 25.8989C73.3079 24.4969 72.1709 23.3599 70.7688 23.3599H60.4861C59.0841 23.3599 57.9471 24.4969 57.9471 25.8989C57.9471 27.301 59.0841 28.438 60.4861 28.438H62.961V40.9513C57.1389 39.7708 52.7425 34.6137 52.7425 28.4484V25.8989C52.7425 24.4969 51.6055 23.3599 50.2034 23.3599H44.3397C42.9377 23.3599 41.8007 24.4969 41.8007 25.8989C41.8007 27.301 42.9377 28.438 44.3397 28.438H47.6644V28.4484C47.6644 37.4207 54.3251 44.8634 62.961 46.1V51.4036H60.4861C59.0841 51.4036 57.9471 52.5403 57.9471 53.9426C57.9471 55.3447 59.0841 56.4817 60.4861 56.4817H70.7688C72.1709 56.4817 73.3079 55.3447 73.3079 53.9426C73.3079 52.5403 72.1709 51.4036 70.7688 51.4036H68.0391V46.1C76.6749 44.8634 83.3357 37.4204 83.3357 28.4484L86.6603 28.438C88.0624 28.438 89.1994 27.301 89.1994 25.8989C89.1994 24.4966 88.0624 23.3599 86.6603 23.3599Z" fill="url(#paint2_linear_17_9399)"/>
<path d="M101.834 36.3337C101.834 16.299 85.5345 0 65.5 0C45.4655 0 29.1663 16.299 29.1663 36.3337C29.1663 56.3682 45.4653 72.6675 65.5 72.6675C85.5347 72.6675 101.834 56.3682 101.834 36.3337ZM65.5 67.5891C48.2656 67.5891 34.2444 53.5679 34.2444 36.3335C34.2444 19.0993 48.2656 5.07812 65.5 5.07812C82.7344 5.07812 96.7556 19.0993 96.7556 36.3337C96.7556 53.5681 82.7344 67.5891 65.5 67.5891Z" fill="url(#paint3_linear_17_9399)"/>
<defs>
<linearGradient id="paint0_linear_17_9399" x1="28.5333" y1="34.3911" x2="28.5333" y2="130" gradientUnits="userSpaceOnUse">
<stop stop-color="#C95D82"/>
<stop offset="1" stop-color="#632E40"/>
</linearGradient>
<linearGradient id="paint1_linear_17_9399" x1="102.467" y1="34.3911" x2="102.467" y2="130" gradientUnits="userSpaceOnUse">
<stop stop-color="#C95D82"/>
<stop offset="1" stop-color="#632E40"/>
</linearGradient>
<linearGradient id="paint2_linear_17_9399" x1="65.5" y1="23.3599" x2="65.5" y2="56.4817" gradientUnits="userSpaceOnUse">
<stop stop-color="#C95D82"/>
<stop offset="1" stop-color="#632E40"/>
</linearGradient>
<linearGradient id="paint3_linear_17_9399" x1="65.5" y1="0" x2="65.5" y2="72.6675" gradientUnits="userSpaceOnUse">
<stop stop-color="#C95D82"/>
<stop offset="1" stop-color="#632E40"/>
</linearGradient>
</defs>
</svg>
