<svg width="22" height="22" viewBox="0 0 22 22" fill="none" xmlns="http://www.w3.org/2000/svg">
<path fill-rule="evenodd" clip-rule="evenodd" d="M3.63086 9.54224C3.63086 5.44847 7.05181 2.13965 11.1898 2.13965C15.3395 2.13965 18.7604 5.44847 18.7604 9.54224C18.7604 11.6051 18.0102 13.5203 16.7753 15.1436C15.4131 16.9341 13.734 18.4942 11.844 19.7188C11.4115 20.0018 11.0211 20.0232 10.5464 19.7188C8.64563 18.4942 6.96656 16.9341 5.61595 15.1436C4.3802 13.5203 3.63086 11.6051 3.63086 9.54224ZM8.69878 9.77243C8.69878 11.1438 9.81786 12.2225 11.19 12.2225C12.5631 12.2225 13.6929 11.1438 13.6929 9.77243C13.6929 8.4117 12.5631 7.28057 11.19 7.28057C9.81786 7.28057 8.69878 8.4117 8.69878 9.77243Z" fill="url(#paint0_linear_109_706)"/>
<defs>
<linearGradient id="paint0_linear_109_706" x1="11.1956" y1="2.13965" x2="11.1956" y2="19.9391" gradientUnits="userSpaceOnUse">
<stop stop-color="#C95D82"/>
<stop offset="1" stop-color="#632E40"/>
</linearGradient>
</defs>
</svg>
