<svg width="32" height="32" viewBox="0 0 32 32" fill="none" xmlns="http://www.w3.org/2000/svg">
<path fill-rule="evenodd" clip-rule="evenodd" d="M16.3325 2.66675C22.3979 2.66675 27.3325 7.63875 27.3325 13.7507C27.3325 21.2641 18.7245 28.6667 16.3325 28.6667C13.9405 28.6667 5.33252 21.2641 5.33252 13.7507C5.33252 7.63875 10.2672 2.66675 16.3325 2.66675ZM16.3325 4.66675C11.3699 4.66675 7.33252 8.74275 7.33252 13.7507C7.33252 20.1227 14.8312 26.3307 16.3325 26.6614C17.8339 26.3294 25.3325 20.1214 25.3325 13.7507C25.3325 8.74275 21.2952 4.66675 16.3325 4.66675ZM16.3339 9.33342C18.7232 9.33342 20.6672 11.2774 20.6672 13.6681C20.6672 16.0574 18.7232 18.0001 16.3339 18.0001C13.9445 18.0001 12.0005 16.0574 12.0005 13.6681C12.0005 11.2774 13.9445 9.33342 16.3339 9.33342ZM16.3339 11.3334C15.0472 11.3334 14.0005 12.3801 14.0005 13.6681C14.0005 14.9547 15.0472 16.0001 16.3339 16.0001C17.6205 16.0001 18.6672 14.9547 18.6672 13.6681C18.6672 12.3801 17.6205 11.3334 16.3339 11.3334Z" fill="white"/>
</svg>
