<svg width="32" height="32" viewBox="0 0 32 32" fill="none" xmlns="http://www.w3.org/2000/svg">
<path fill-rule="evenodd" clip-rule="evenodd" d="M22.2117 2.66675C26.6517 2.66675 29.9997 6.28942 29.9997 11.0934V20.2507C29.9997 22.7094 29.1303 24.9307 27.5503 26.5067C26.133 27.9187 24.2943 28.6667 22.233 28.6667H9.09567C7.03834 28.6667 5.20101 27.9201 3.78234 26.5067C2.20234 24.9307 1.33301 22.7094 1.33301 20.2507V11.0934C1.33301 6.28942 4.68101 2.66675 9.12101 2.66675H22.2117ZM22.2117 4.66675H9.12101C5.76767 4.66675 3.33301 7.36942 3.33301 11.0934V20.2507C3.33301 22.1747 3.99434 23.8934 5.19434 25.0894C6.22901 26.1227 7.57967 26.6667 9.09967 26.6667H22.2117C22.2143 26.6641 22.225 26.6667 22.233 26.6667C23.7543 26.6667 25.1037 26.1227 26.1383 25.0894C27.3397 23.8934 27.9997 22.1747 27.9997 20.2507V11.0934C27.9997 7.36942 25.565 4.66675 22.2117 4.66675ZM24.313 10.8385C24.661 11.2665 24.5957 11.8958 24.1677 12.2451L18.2423 17.0611C17.493 17.6558 16.597 17.9531 15.7023 17.9531C14.8103 17.9531 13.921 17.6585 13.177 17.0691L7.19701 12.2478C6.76634 11.9011 6.69967 11.2705 7.04501 10.8411C7.39301 10.4131 8.02234 10.3451 8.45167 10.6905L14.4263 15.5065C15.177 16.1011 16.2343 16.1011 16.9903 15.5011L22.905 10.6931C23.3343 10.3425 23.9637 10.4091 24.313 10.8385Z" fill="white"/>
</svg>
