<svg width="22" height="20" viewBox="0 0 22 20" fill="none" xmlns="http://www.w3.org/2000/svg">
<path fill-rule="evenodd" clip-rule="evenodd" d="M16.3932 0.853516C17.7853 0.853516 19.1245 1.40372 20.1097 2.39097C21.0959 3.37614 21.6471 4.70493 21.6471 6.09601V14.2971C21.6471 17.1935 19.2906 19.5396 16.3932 19.5396H6.13764C3.24025 19.5396 0.884766 17.1935 0.884766 14.2971V6.09601C0.884766 3.19966 3.22987 0.853516 6.13764 0.853516H16.3932ZM18.045 7.6429L18.128 7.55985C18.3761 7.2588 18.3761 6.82279 18.1166 6.52174C17.9723 6.36706 17.774 6.27259 17.5674 6.25183C17.3494 6.24041 17.1418 6.31411 16.985 6.45945L12.3042 10.1967C11.7021 10.696 10.8394 10.696 10.2279 10.1967L5.55641 6.45945C5.23356 6.22068 4.78717 6.25183 4.51829 6.53212C4.238 6.81241 4.20686 7.2588 4.44459 7.57024L4.58058 7.70519L9.30401 11.3905C9.88536 11.8473 10.5902 12.0964 11.3283 12.0964C12.0644 12.0964 12.7817 11.8473 13.362 11.3905L18.045 7.6429Z" fill="url(#paint0_linear_17_6112)"/>
<defs>
<linearGradient id="paint0_linear_17_6112" x1="11.2659" y1="0.853516" x2="11.2659" y2="19.5396" gradientUnits="userSpaceOnUse">
<stop stop-color="#C95D82"/>
<stop offset="1" stop-color="#632E40"/>
</linearGradient>
</defs>
</svg>
