<svg width="33" height="33" viewBox="0 0 33 33" fill="none" xmlns="http://www.w3.org/2000/svg">
<path fill-rule="evenodd" clip-rule="evenodd" d="M16.5059 3.0293C23.8748 3.0293 29.8555 8.99657 29.8555 16.3789C29.8555 23.7479 23.8748 29.7285 16.5059 29.7285C9.13688 29.7285 3.15625 23.7479 3.15625 16.3789C3.15625 8.99657 9.13688 3.0293 16.5059 3.0293ZM16.5062 14.7767C15.6251 14.7767 14.9042 15.4976 14.9042 16.3786C14.9042 17.2597 15.6251 17.9672 16.5062 17.9672C17.3872 17.9672 18.1068 17.2597 18.1068 16.3786C18.1068 15.4976 17.3872 14.7767 16.5062 14.7767ZM16.506 20.7571C15.6249 20.7571 14.904 21.4647 14.904 22.3591C14.904 23.2402 15.6249 23.9477 16.506 23.9477C17.3871 23.9477 18.1066 23.2402 18.1066 22.3591C18.1066 21.4647 17.3871 20.7571 16.506 20.7571ZM14.9042 10.398C14.9042 9.51697 15.6251 8.79609 16.5062 8.79609C17.3872 8.79609 18.1068 9.51697 18.1068 10.398C18.1068 11.2791 17.3872 11.9866 16.5062 11.9866C15.6251 11.9866 14.9042 11.2791 14.9042 10.398Z" fill="url(#paint0_linear_109_738)"/>
<defs>
<linearGradient id="paint0_linear_109_738" x1="29.8555" y1="16.3789" x2="3.15625" y2="16.3789" gradientUnits="userSpaceOnUse">
<stop stop-color="#C95D82"/>
<stop offset="1" stop-color="#632E40"/>
</linearGradient>
</defs>
</svg>
