<svg width="67" height="88" viewBox="0 0 67 88" fill="none" xmlns="http://www.w3.org/2000/svg">
<path d="M47.3561 34.8405C53.1879 29.5236 61.0743 22.3328 61.7931 5.15385H67V0H0V5.15385H5.20693C5.92572 22.3328 13.8121 29.5236 19.6439 34.8405C23.5558 38.4071 25.7692 40.5901 25.7692 43.9795C25.7692 47.3688 23.5558 49.5518 19.6439 53.1185C13.8121 58.4353 5.92572 65.6262 5.20693 82.8051H0V87.959H67V82.8051H61.7931C61.0743 65.6262 53.1879 58.4353 47.3561 53.1185C43.4442 49.5518 41.2308 47.3688 41.2308 43.9795C41.2308 40.5901 43.4442 38.4071 47.3561 34.8405ZM30.9231 63.2958C30.1272 63.46 29.3408 63.699 28.5734 64.0164L12.7894 70.5479C15.3671 63.9939 19.5186 60.2071 23.1162 56.9271C27.1311 53.2667 30.9231 49.8093 30.9231 43.9795V63.2958ZM43.8838 56.9271C47.4814 60.2071 51.6328 63.9939 54.2106 70.5477L38.4266 64.0163C37.6592 63.6988 36.8729 63.4598 36.0769 63.2956V43.9795C36.0769 49.8093 39.869 53.2667 43.8838 56.9271ZM12.6989 17.1795C11.4529 13.9327 10.5924 10.0125 10.3671 5.15385H56.6327C56.4075 10.0125 55.5471 13.9327 54.3009 17.1795H12.6989Z" fill="url(#paint0_linear_6_320)"/>
<defs>
<linearGradient id="paint0_linear_6_320" x1="33.5" y1="0" x2="33.5" y2="87.959" gradientUnits="userSpaceOnUse">
<stop stop-color="#C95D82"/>
<stop offset="1" stop-color="#632E40"/>
</linearGradient>
</defs>
</svg>
