<svg width="95" height="95" viewBox="0 0 95 95" fill="none" xmlns="http://www.w3.org/2000/svg">
<g clip-path="url(#clip0_6_414)">
<path d="M14.1077 16.8502H48.5419C50.0748 16.8502 51.3179 15.6072 51.3179 14.0736C51.3179 12.5399 50.0748 11.2969 48.5419 11.2969H14.1077C12.5741 11.2969 11.3311 12.5399 11.3311 14.0736C11.3311 15.6072 12.5741 16.8502 14.1077 16.8502Z" fill="url(#paint0_linear_6_414)"/>
<path d="M14.1077 27.9567H48.5419C50.0748 27.9567 51.3179 26.7137 51.3179 25.18C51.3179 23.6463 50.0748 22.4033 48.5419 22.4033H14.1077C12.5741 22.4033 11.3311 23.6463 11.3311 25.18C11.3311 26.7137 12.5741 27.9567 14.1077 27.9567Z" fill="url(#paint1_linear_6_414)"/>
<path d="M32.6189 33.5103H14.1077C12.5741 33.5103 11.3311 34.7533 11.3311 36.2869C11.3311 37.8199 12.5741 39.0636 14.1077 39.0636H32.6189C34.1519 39.0636 35.3949 37.8199 35.3949 36.2869C35.3949 34.7533 34.1519 33.5103 32.6189 33.5103Z" fill="url(#paint2_linear_6_414)"/>
<path d="M92.2241 33.51H62.9389V2.96222C62.9389 1.42856 61.6952 0.185547 60.1623 0.185547H2.77765C1.24399 0.185547 0.000976562 1.42856 0.000976562 2.96222V47.6695C0.000976562 49.2032 1.24399 50.4462 2.77765 50.4462H9.25656V62.2646C9.25656 63.4221 9.97483 64.4578 11.0577 64.8644C11.3758 64.984 11.7056 65.0413 12.0325 65.0413C12.8189 65.0413 13.5872 64.7072 14.125 64.0911L26.0391 50.4462H40.9495V75.7392C40.9495 77.2729 42.1932 78.5159 43.7262 78.5159H68.8634L80.7739 93.8865C81.3102 94.5787 82.127 94.9628 82.9693 94.9628C83.2693 94.9628 83.5723 94.9135 83.8673 94.8128C84.9907 94.4287 85.7452 93.3726 85.7452 92.1854V78.5159H92.2241C93.7578 78.5159 95.0008 77.2729 95.0008 75.7392V36.2867C95.0008 34.753 93.7578 33.51 92.2241 33.51V33.51ZM24.778 44.8928C23.9756 44.8928 23.2139 45.2393 22.6862 45.843L14.8099 54.8638V47.6695C14.8099 46.1358 13.5669 44.8928 12.0332 44.8928H5.55433V5.73889H57.3856V33.51H43.7262C42.1932 33.51 40.9495 34.753 40.9495 36.2867V44.8928H24.778ZM89.4474 72.9625H82.9685C81.4349 72.9625 80.1919 74.2055 80.1919 75.7392V84.0692L72.4192 74.0388C71.893 73.3597 71.0827 72.9625 70.2245 72.9625H46.5028V39.0633H89.4474V72.9625Z" fill="url(#paint3_linear_6_414)"/>
<path d="M61.7643 65.0907C62.263 65.7655 63.0407 66.1779 63.8785 66.2127C63.9177 66.2149 63.9568 66.2156 63.996 66.2156C64.7918 66.2156 65.5514 65.8742 66.0797 65.2741L79.7232 49.7795C80.7365 48.6285 80.6249 46.8745 79.4739 45.8605C78.3229 44.8473 76.5689 44.9589 75.5549 46.1099L64.183 59.0249L60.9518 54.6602C60.0393 53.4274 58.3005 53.1679 57.0684 54.0804C55.8355 54.9929 55.576 56.7317 56.4886 57.9638L61.7643 65.0907Z" fill="url(#paint4_linear_6_414)"/>
</g>
<defs>
<linearGradient id="paint0_linear_6_414" x1="31.3245" y1="11.2969" x2="31.3245" y2="16.8502" gradientUnits="userSpaceOnUse">
<stop stop-color="#C95D82"/>
<stop offset="1" stop-color="#632E40"/>
</linearGradient>
<linearGradient id="paint1_linear_6_414" x1="31.3245" y1="22.4033" x2="31.3245" y2="27.9567" gradientUnits="userSpaceOnUse">
<stop stop-color="#C95D82"/>
<stop offset="1" stop-color="#632E40"/>
</linearGradient>
<linearGradient id="paint2_linear_6_414" x1="23.363" y1="33.5103" x2="23.363" y2="39.0636" gradientUnits="userSpaceOnUse">
<stop stop-color="#C95D82"/>
<stop offset="1" stop-color="#632E40"/>
</linearGradient>
<linearGradient id="paint3_linear_6_414" x1="47.5009" y1="0.185547" x2="47.5009" y2="94.9628" gradientUnits="userSpaceOnUse">
<stop stop-color="#C95D82"/>
<stop offset="1" stop-color="#632E40"/>
</linearGradient>
<linearGradient id="paint4_linear_6_414" x1="68.1796" y1="45.168" x2="68.1796" y2="66.2156" gradientUnits="userSpaceOnUse">
<stop stop-color="#C95D82"/>
<stop offset="1" stop-color="#632E40"/>
</linearGradient>
<clipPath id="clip0_6_414">
<rect width="95" height="95" fill="white" transform="translate(0.000976562)"/>
</clipPath>
</defs>
</svg>
