<svg width="96" height="96" viewBox="0 0 96 96" fill="none" xmlns="http://www.w3.org/2000/svg">
<g clip-path="url(#clip0_6_411)">
<path d="M93.3825 52.5099L85.5129 27.3274C87.5437 26.3728 89.1341 24.6322 89.8906 22.5002H93.1865C94.7398 22.5002 95.999 21.2409 95.999 19.6877C95.999 18.1344 94.7398 16.8752 93.1865 16.8752H89.8903C88.7293 13.6016 85.6031 11.2502 81.9365 11.2502C78.27 11.2502 75.1438 13.6016 73.9828 16.8752H67.9895C67.0629 14.9299 65.2068 13.5103 62.999 13.1931V6.5625C62.999 2.94394 60.0551 0 56.4365 0H35.8115C32.193 0 29.249 2.94394 29.249 6.5625V16.875H22.0153C20.8543 13.6014 17.7281 11.25 14.0615 11.25C10.395 11.25 7.26877 13.6014 6.10777 16.875H2.81152C1.25827 16.875 -0.000976562 18.1342 -0.000976562 19.6875C-0.000976562 21.2407 1.25827 22.5 2.81152 22.5H6.10777C6.86415 24.6324 8.45433 26.3726 10.4851 27.3272L2.61559 52.5099C1.15421 52.6108 -0.000976562 53.8252 -0.000976562 55.3125V59.0625C-0.000976562 66.8166 6.30746 73.125 14.0615 73.125C21.8156 73.125 28.124 66.8166 28.124 59.0625V55.3125C28.124 53.8252 26.9688 52.6108 25.5075 52.5099L17.6377 27.3272C19.6685 26.3726 21.2587 24.6324 22.0151 22.5H29.249V30.4826C29.249 35.9631 31.2376 41.1377 34.874 45.1826V50.7885C33.7824 51.1749 32.999 52.2135 32.999 53.4375V93.1875C32.999 94.7407 34.2583 96 35.8115 96H60.1865C61.7398 96 62.999 94.7407 62.999 93.1875V53.4375C62.999 52.2135 62.2156 51.1749 61.124 50.7885V45.0491L68.0077 36.4446C68.4067 35.9458 68.624 35.3263 68.624 34.6875V22.5H73.9826C74.7391 24.6321 76.3295 26.3728 78.3603 27.3272L70.4908 52.5097C69.0292 52.6108 67.874 53.8252 67.874 55.3125V59.0625C67.874 66.8166 74.1825 73.125 81.9365 73.125C89.6906 73.125 95.999 66.8166 95.999 59.0625V55.3125C95.999 53.8252 94.8438 52.6108 93.3825 52.5099ZM14.0615 16.875C15.6123 16.875 16.874 18.1367 16.874 19.6875C16.874 21.2383 15.6123 22.5 14.0615 22.5C12.5107 22.5 11.249 21.2383 11.249 19.6875C11.249 18.1367 12.5107 16.875 14.0615 16.875ZM22.499 59.0625C22.499 63.7149 18.714 67.5 14.0615 67.5C9.40909 67.5 5.62402 63.7149 5.62402 59.0625V58.125H22.499V59.0625ZM8.51209 52.5L14.0615 34.7417L19.611 52.5H8.51209ZM81.9365 16.875C83.4873 16.875 84.749 18.1367 84.749 19.6875C84.749 21.2383 83.4873 22.5 81.9365 22.5C80.3857 22.5 79.124 21.2383 79.124 19.6875C79.124 18.1367 80.3857 16.875 81.9365 16.875ZM34.874 6.5625C34.874 6.04556 35.2946 5.625 35.8115 5.625H56.4365C56.9535 5.625 57.374 6.04556 57.374 6.5625V13.125H49.874C46.7328 13.125 44.0383 15.0669 42.9232 17.8125H37.6865C36.1357 17.8125 34.874 16.5508 34.874 15V6.5625ZM57.374 90.375H38.624V56.25H57.374V90.375ZM62.999 33.7009L56.1153 42.3054C55.7163 42.8042 55.499 43.4237 55.499 44.0625V50.625H40.499V44.0625C40.499 43.3166 40.2026 42.6013 39.6751 42.0739C36.5791 38.9777 34.874 34.8611 34.874 30.4826V22.9537C35.7543 23.2659 36.7006 23.4375 37.6865 23.4375H42.9232C43.9053 25.8557 46.1126 27.6506 48.7715 28.0442C47.0741 30.492 46.124 33.4406 46.124 36.5625C46.124 38.1157 47.3833 39.375 48.9365 39.375C50.4898 39.375 51.749 38.1157 51.749 36.5625C51.749 33.0084 53.7238 29.8132 56.9025 28.224L57.6943 27.8282C58.8611 27.2449 59.4735 25.9359 59.1738 24.6664C58.8742 23.3968 57.741 22.5 56.4365 22.5H49.874C48.8401 22.5 47.999 21.6589 47.999 20.625C47.999 19.5911 48.8401 18.75 49.874 18.75H62.0615C62.5785 18.75 62.999 19.1706 62.999 19.6875V33.7009ZM81.9365 34.7417L87.486 52.5H76.3873L81.9365 34.7417ZM90.374 59.0625C90.374 63.7149 86.589 67.5 81.9365 67.5C77.2841 67.5 73.499 63.7149 73.499 59.0625V58.125H90.374V59.0625Z" fill="url(#paint0_linear_6_411)"/>
</g>
<defs>
<linearGradient id="paint0_linear_6_411" x1="47.999" y1="0" x2="47.999" y2="96" gradientUnits="userSpaceOnUse">
<stop stop-color="#C95D82"/>
<stop offset="1" stop-color="#632E40"/>
</linearGradient>
<clipPath id="clip0_6_411">
<rect width="96" height="96" fill="white" transform="translate(-0.000976562)"/>
</clipPath>
</defs>
</svg>
