<svg width="140" height="140" viewBox="0 0 140 140" fill="none" xmlns="http://www.w3.org/2000/svg">
<path d="M124.79 90.5139H118.474C116.964 90.5139 115.672 91.8331 115.672 93.3434V96.0892C115.672 102.729 111.023 108.283 104.733 109.555V95.9831H107.674C109.184 95.9831 110.409 94.7585 110.409 93.2485C110.409 91.7385 109.184 90.5139 107.674 90.5139H96.6C95.09 90.5139 93.8655 91.7385 93.8655 93.2485C93.8655 94.7585 95.09 95.9831 96.6 95.9831H99.2643V109.555C92.9748 108.283 88.3261 102.729 88.3261 96.0889V93.3431C88.3261 91.8328 87.0356 90.5137 85.5256 90.5137H79.2104C77.7004 90.5137 76.4758 91.7382 76.4758 93.2482C76.4758 94.7583 77.7004 95.9828 79.2104 95.9828H82.8569V96.0889C82.8569 105.752 89.9668 113.768 99.2643 115.1V120.868H96.6C95.09 120.868 93.8655 122.092 93.8655 123.602C93.8655 125.112 95.09 126.337 96.6 126.337H107.674C109.184 126.337 110.409 125.112 110.409 123.602C110.409 122.092 109.184 120.868 107.674 120.868H104.733V115.1C114.031 113.768 121.208 105.752 121.208 96.0889L124.789 96.0777C126.299 96.0777 127.524 94.8058 127.524 93.2958C127.524 91.7858 126.3 90.5139 124.79 90.5139Z" fill="url(#paint0_linear_132_895)"/>
<path d="M53.7125 55.7152C52.1015 57.3256 49.4815 57.3256 47.872 55.7152C46.8039 54.6477 45.0729 54.6477 44.0045 55.7152C42.9367 56.7831 42.9367 58.5146 44.0045 59.5827C47.7465 63.325 53.8363 63.3258 57.5794 59.5827C58.6475 58.5149 58.6475 56.7836 57.5797 55.7155C56.5121 54.6479 54.7803 54.6477 53.7125 55.7152Z" fill="url(#paint1_linear_132_895)"/>
<path d="M41.1817 46.6537C42.692 46.6537 43.9163 45.4294 43.9163 43.9191C43.9163 42.4089 42.692 41.1846 41.1817 41.1846C39.6714 41.1846 38.4471 42.4089 38.4471 43.9191C38.4471 45.4294 39.6714 46.6537 41.1817 46.6537Z" fill="url(#paint2_linear_132_895)"/>
<path d="M60.4029 46.6537C61.9132 46.6537 63.1375 45.4294 63.1375 43.9191C63.1375 42.4089 61.9132 41.1846 60.4029 41.1846C58.8926 41.1846 57.6683 42.4089 57.6683 43.9191C57.6683 45.4294 58.8926 46.6537 60.4029 46.6537Z" fill="url(#paint3_linear_132_895)"/>
<path d="M101.966 63.9753C96.9662 63.9753 92.1547 64.9472 87.7794 66.7088V37.056C87.7794 16.4424 71.1454 0 50.7412 0C30.3085 0 13.6728 16.6231 13.6728 37.056V90.8372C5.19567 96.8259 0 106.528 0 117.094V137.275C0 138.785 1.23219 140.01 2.74222 140.01H102C122.963 140.01 140 122.955 140 101.993C140 81.03 122.928 63.9753 101.966 63.9753ZM50.7565 5.46912C68.1114 5.46912 82.31 19.4906 82.31 37.056V69.4412C76.294 73.1785 71.1705 78.7554 67.9402 85.0449H61.8008V74.4337C70.5514 70.2834 76.8409 61.2443 76.8409 50.7846V32.9375C76.8409 31.4275 75.6287 30.203 74.1187 30.203C67.7895 30.203 61.6923 27.9016 56.9393 23.7229L52.5946 19.9008C51.5577 18.9893 50.0056 18.9934 48.9741 19.9109L44.7929 23.5667C40.023 27.8067 33.8826 30.0802 27.5009 30.0802H27.4536C25.9436 30.0802 24.6111 31.4275 24.6111 32.9375V50.7846C24.6111 61.2443 30.9005 70.2834 39.9246 74.4337V85.0449H31.984C27.5559 85.0449 23.2435 86.031 19.1417 87.7789V37.056C19.1419 19.6388 33.3395 5.46912 50.7565 5.46912ZM50.7258 71.3887C39.3648 71.3887 30.0802 62.1457 30.0802 50.7844V35.5575C36.9166 34.9819 43.2739 32.2479 48.373 27.7153L50.7753 25.604L53.3086 27.8299C58.3722 32.2818 64.8088 34.9729 71.3718 35.5531V50.7841C71.3721 62.1459 62.0871 71.3887 50.7258 71.3887ZM45.3937 76.2719C47.0345 76.6547 48.9755 76.8581 50.8626 76.8581C52.75 76.8581 54.4178 76.6547 56.332 76.2719V86.8631C53.5974 90.0256 48.1283 90.0294 45.3937 86.8631V76.2719ZM21.8765 134.54V123.546C21.8765 122.036 20.652 120.812 19.1419 120.812C17.6319 120.812 16.4074 122.036 16.4074 123.546V134.54H5.46912V117.094C5.46912 102.068 17.7369 90.514 31.9843 90.514H41.1825C41.2161 90.514 41.2487 90.5465 41.282 90.5454C46.4208 96.0621 55.137 96.0816 60.3031 90.5364C60.3365 90.5375 60.369 90.5143 60.4026 90.5143H65.732C64.5966 94.0692 63.983 97.9843 63.983 101.956C63.983 115.743 71.36 127.875 82.3738 134.541H21.8765V134.54ZM102 134.54C84.053 134.54 69.4521 119.939 69.4521 101.993C69.4521 84.0459 84.0533 69.4447 102 69.4447C119.947 69.4447 134.548 84.0459 134.548 101.993C134.548 119.939 119.947 134.54 102 134.54Z" fill="url(#paint4_linear_132_895)"/>
<defs>
<linearGradient id="paint0_linear_132_895" x1="102" y1="90.5137" x2="102" y2="126.337" gradientUnits="userSpaceOnUse">
<stop stop-color="#C95D82"/>
<stop offset="1" stop-color="#632E40"/>
</linearGradient>
<linearGradient id="paint1_linear_132_895" x1="50.7921" y1="54.9146" x2="50.7921" y2="62.3897" gradientUnits="userSpaceOnUse">
<stop stop-color="#C95D82"/>
<stop offset="1" stop-color="#632E40"/>
</linearGradient>
<linearGradient id="paint2_linear_132_895" x1="41.1817" y1="41.1846" x2="41.1817" y2="46.6537" gradientUnits="userSpaceOnUse">
<stop stop-color="#C95D82"/>
<stop offset="1" stop-color="#632E40"/>
</linearGradient>
<linearGradient id="paint3_linear_132_895" x1="60.4029" y1="41.1846" x2="60.4029" y2="46.6537" gradientUnits="userSpaceOnUse">
<stop stop-color="#C95D82"/>
<stop offset="1" stop-color="#632E40"/>
</linearGradient>
<linearGradient id="paint4_linear_132_895" x1="70" y1="0" x2="70" y2="140.01" gradientUnits="userSpaceOnUse">
<stop stop-color="#C95D82"/>
<stop offset="1" stop-color="#632E40"/>
</linearGradient>
</defs>
</svg>
