<svg width="134" height="111" viewBox="0 0 134 111" fill="none" xmlns="http://www.w3.org/2000/svg">
<path d="M119.924 27.7132C120.005 28.8857 120.005 30.0582 120.005 31.2415C120.005 67.2972 92.557 108.88 42.3664 108.88V108.859C27.54 108.88 13.0215 104.633 0.540039 96.6259C2.69593 96.8853 4.86262 97.0149 7.03472 97.0203C19.3217 97.0311 31.2574 92.9085 40.9237 85.3169C29.2474 85.0954 19.0083 77.4823 15.4313 66.3678C19.5216 67.1567 23.7361 66.9946 27.7507 65.8978C15.0207 63.3258 5.86222 52.1411 5.86222 39.1518V38.806C9.65528 40.9186 13.9022 42.0911 18.2464 42.2208C6.25665 34.2078 2.56085 18.2575 9.80117 5.78687C23.655 22.834 44.0954 33.1974 66.0379 34.2943C63.8388 24.817 66.843 14.8859 73.9321 8.22373C84.9222 -2.10724 102.207 -1.57773 112.538 9.40703C118.649 8.20211 124.506 5.95977 129.866 2.78268C127.829 9.09905 123.566 14.4645 117.871 17.8739C123.28 17.2363 128.564 15.7882 133.54 13.5783C129.877 19.068 125.263 23.8499 119.924 27.7132Z" fill="#1D9BF0"/>
</svg>
